ffmpeg version 4.2.7-0ubuntu0.1 Copyright (c) 2000-2022 the FFmpeg developers
  built with gcc 9 (Ubuntu 9.4.0-1ubuntu1~20.04.1)
  configuration: --prefix=/usr --extra-version=0ubuntu0.1 --toolchain=hardened --libdir=/usr/lib/x86_64-linux-gnu --incdir=/usr/include/x86_64-linux-gnu --arch=amd64 --enable-gpl --disable-stripping --enable-avresample --disable-filter=resample --enable-avisynth --enable-gnutls --enable-ladspa --enable-libaom --enable-libass --enable-libbluray --enable-libbs2b --enable-libcaca --enable-libcdio --enable-libcodec2 --enable-libflite --enable-libfontconfig --enable-libfreetype --enable-libfribidi --enable-libgme --enable-libgsm --enable-libjack --enable-libmp3lame --enable-libmysofa --enable-libopenjpeg --enable-libopenmpt --enable-libopus --enable-libpulse --enable-librsvg --enable-librubberband --enable-libshine --enable-libsnappy --enable-libsoxr --enable-libspeex --enable-libssh --enable-libtheora --enable-libtwolame --enable-libvidstab --enable-libvorbis --enable-libvpx --enable-libwavpack --enable-libwebp --enable-libx265 --enable-libxml2 --enable-libxvid --enable-libzmq --enable-libzvbi --enable-lv2 --enable-omx --enable-openal --enable-opencl --enable-opengl --enable-sdl2 --enable-libdc1394 --enable-libdrm --enable-libiec61883 --enable-nvenc --enable-chromaprint --enable-frei0r --enable-libx264 --enable-shared
  libavutil      56. 31.100 / 56. 31.100
  libavcodec     58. 54.100 / 58. 54.100
  libavformat    58. 29.100 / 58. 29.100
  libavdevice    58.  8.100 / 58.  8.100
  libavfilter     7. 57.100 /  7. 57.100
  libavresample   4.  0.  0 /  4.  0.  0
  libswscale      5.  5.100 /  5.  5.100
  libswresample   3.  5.100 /  3.  5.100
  libpostproc    55.  5.100 / 55.  5.100
[rawvideo @ 0x55e299604780] Estimating duration from bitrate, this may be inaccurate
Input #0, rawvideo, from 'output.yuv':
  Duration: 00:00:04.80, start: 0.000000, bitrate: 2488320 kb/s
    Stream #0:0: Video: rawvideo (I420 / 0x30323449), yuv420p, 3840x2160, 2488320 kb/s, 25 tbr, 25 tbn, 25 tbc
Stream mapping:
  Stream #0:0 -> #0:0 (rawvideo (native) -> h264 (libx264))
Press [q] to stop, [?] for help
[libx264 @ 0x55e299609d80] using cpu capabilities: MMX2 SSE2Fast SSSE3 SSE4.2 AVX
[libx264 @ 0x55e299609d80] profile High, level 5.1
Output #0, h264, to 'output_h264.264':
  Metadata:
    encoder         : Lavf58.29.100
    Stream #0:0: Video: h264 (libx264), yuv420p, 3840x2160, q=-1--1, 30 fps, 30 tbn, 30 tbc
    Metadata:
      encoder         : Lavc58.54.100 libx264
    Side data:
      cpb: bitrate max/min/avg: 0/0/0 buffer size: 0 vbv_delay: -1
frame=   22 fps=0.0 q=0.0 size=       0kB time=00:00:00.00 bitrate=N/A speed=   0x    frame=   45 fps= 44 q=0.0 size=       0kB time=00:00:00.00 bitrate=N/A speed=   0x    frame=   47 fps= 12 q=0.0 size=       0kB time=00:00:00.00 bitrate=N/A speed=   0x    frame=   55 fps= 12 q=0.0 size=       0kB time=00:00:00.00 bitrate=N/A speed=   0x    frame=   58 fps= 11 q=29.0 size=    1024kB time=00:00:00.00 bitrate=N/A speed=   0x    frame=   60 fps=6.5 q=29.0 size=    1280kB time=00:00:00.06 bitrate=157285.6kbits/s speed=0.00717x    frame=   68 fps=6.9 q=29.0 size=    2048kB time=00:00:00.33 bitrate=50331.7kbits/s speed=0.0339x    frame=   72 fps=6.8 q=29.0 size=    2560kB time=00:00:00.46 bitrate=44938.9kbits/s speed=0.0443x    frame=   75 fps=6.4 q=29.0 size=    2816kB time=00:00:00.56 bitrate=40709.4kbits/s speed=0.0485x    frame=   81 fps=6.6 q=29.0 size=    3328kB time=00:00:00.76 bitrate=35560.4kbits/s speed=0.0628x    frame=   87 fps=4.8 q=29.0 size=    4096kB time=00:00:00.96 bitrate=34711.5kbits/s speed=0.0536x    frame=   96 fps=5.1 q=29.0 size=    5120kB time=00:00:01.26 bitrate=33112.9kbits/s speed=0.0673x    frame=   99 fps=5.1 q=29.0 size=    5376kB time=00:00:01.36 bitrate=32224.5kbits/s speed=0.0699x    frame=  103 fps=5.1 q=29.0 size=    5888kB time=00:00:01.50 bitrate=32156.3kbits/s speed=0.074x    frame=  109 fps=5.2 q=29.0 size=    6144kB time=00:00:01.70 bitrate=29606.9kbits/s speed=0.0816x    frame=  112 fps=5.2 q=29.0 size=    6656kB time=00:00:01.80 bitrate=30292.2kbits/s speed=0.0841x    frame=  115 fps=5.2 q=29.0 size=    6912kB time=00:00:01.90 bitrate=29801.6kbits/s speed=0.0865x    frame=  120 fps=5.3 q=29.0 size=    7424kB time=00:00:02.06 bitrate=29427.8kbits/s speed=0.0917x    frame=  120 fps=3.0 q=-1.0 Lsize=   12763kB time=00:00:03.93 bitrate=26581.9kbits/s speed=0.0993x    
video:12763kB audio:0kB subtitle:0kB other streams:0kB global headers:0kB muxing overhead: 0.000000%
[libx264 @ 0x55e299609d80] frame I:1     Avg QP:23.81  size:971259
[libx264 @ 0x55e299609d80] frame P:30    Avg QP:24.25  size:278958
[libx264 @ 0x55e299609d80] frame B:89    Avg QP:28.39  size: 41904
[libx264 @ 0x55e299609d80] consecutive B-frames:  0.8%  0.0%  2.5% 96.7%
[libx264 @ 0x55e299609d80] mb I  I16..4:  4.3% 80.3% 15.4%
[libx264 @ 0x55e299609d80] mb P  I16..4:  0.6%  2.3%  0.2%  P16..4: 53.8% 22.9% 15.3%  0.0%  0.0%    skip: 5.0%
[libx264 @ 0x55e299609d80] mb B  I16..4:  0.0%  0.2%  0.0%  B16..8: 32.7%  2.1%  0.4%  direct: 4.4%  skip:60.1%  L0:44.2% L1:50.9% BI: 5.0%
[libx264 @ 0x55e299609d80] 8x8 transform intra:77.3% inter:73.9%
[libx264 @ 0x55e299609d80] coded y,uvDC,uvAC intra: 72.5% 74.7% 48.7% inter: 21.6% 35.8% 6.9%
[libx264 @ 0x55e299609d80] i16 v,h,dc,p: 66% 14%  9% 11%
[libx264 @ 0x55e299609d80] i8 v,h,dc,ddl,ddr,vr,hd,vl,hu: 16% 14% 20%  6%  8%  7%  9%  8% 11%
[libx264 @ 0x55e299609d80] i4 v,h,dc,ddl,ddr,vr,hd,vl,hu: 14% 16%  9%  8% 12%  9% 12%  8% 11%
[libx264 @ 0x55e299609d80] i8c dc,h,v,p: 60% 18% 15%  8%
[libx264 @ 0x55e299609d80] Weighted P-Frames: Y:0.0% UV:0.0%
[libx264 @ 0x55e299609d80] ref P L0: 37.9% 14.3% 39.9%  7.9%
[libx264 @ 0x55e299609d80] ref B L0: 85.7% 10.5%  3.8%
[libx264 @ 0x55e299609d80] ref B L1: 96.6%  3.4%
[libx264 @ 0x55e299609d80] kb/s:26138.83
